<svg width="360" height="243" viewBox="0 0 360 243" fill="none" xmlns="http://www.w3.org/2000/svg">
<g clip-path="url(#clip0_3347_2674)">
<path d="M88.809 208.91L56.3398 190.021L41.5244 198.656L87.5767 225.266L102.268 216.756L159.868 233.915L102.78 200.842L88.809 208.91Z" fill="#1C1C1C"/>
<path d="M57.7523 227.121L24.3969 193.633L7.90616 203.167L25.02 166.331L0 141.257V222.679L25.0339 208.149L57.7523 227.121Z" fill="#1C1C1C"/>
<path d="M159.868 8.28888L68.6221 41.6242L85.4867 51.3938L159.868 8.28888Z" fill="#1C1C1C"/>
<path d="M93.3646 7.2649L7.0477 57.2334L33.6185 3.05176e-05L0 19.5114V100.836V100.906L93.3646 7.2649Z" fill="#1C1C1C"/>
<path d="M274.514 190.769L200.133 233.873L291.393 200.538L274.514 190.769Z" fill="#1C1C1C"/>
<path d="M266.649 234.911L352.966 184.929L326.396 242.162L360 222.651V141.326V141.257L266.649 234.911Z" fill="#1C1C1C"/>
<path d="M271.191 33.2524L303.674 52.141L318.476 43.5062L272.424 16.896L257.747 25.4063L200.133 8.24738L257.221 41.3198L271.191 33.2524Z" fill="#1C1C1C"/>
<path d="M302.248 15.0417L335.603 48.5293L352.108 38.9951L334.98 75.8314L360 100.906V19.4837L334.967 34.0134L302.248 15.0417Z" fill="#1C1C1C"/>
<path d="M94.5417 69.6874L20.1602 112.792L111.42 79.4569L94.5417 69.6874Z" fill="#1C1C1C"/>
<path d="M268.783 87.8288L236.3 68.9402L221.498 77.575L267.55 104.185L282.227 95.6749L339.841 112.834L282.753 79.7613L268.783 87.8288Z" fill="#1C1C1C"/>
<path d="M172.994 63.8478L146.423 121.081L205.006 87.0677L237.725 106.039L204.369 72.5518L187.864 82.0861L204.992 45.2498L179.972 20.1756L86.6768 113.83L172.994 63.8478Z" fill="#1C1C1C"/>
<path d="M265.458 172.475L339.84 129.37L248.594 162.705L265.458 172.475Z" fill="#1C1C1C"/>
<path d="M91.2186 154.347L123.702 173.222L138.503 164.587L92.4509 137.977L77.774 146.487L20.1602 129.328L77.2479 162.401L91.2186 154.347Z" fill="#1C1C1C"/>
<path d="M187.006 178.314L213.577 121.081L154.994 155.095L122.275 136.123L155.631 169.61L172.135 160.076L155.008 196.913L180.028 221.987L273.323 128.346L187.006 178.314Z" fill="#1C1C1C"/>
</g>
<defs>
<clipPath id="clip0_3347_2674">
<rect width="360" height="242.162" fill="white"/>
</clipPath>
</defs>
</svg>
