<?xml version="1.0" encoding="UTF-8"?>
<svg id="_Слой_1" data-name="Слой_1" xmlns="http://www.w3.org/2000/svg" version="1.1" viewBox="0 0 187.31 212.6">
  <!-- Generator: Adobe Illustrator 29.8.2, SVG Export Plug-In . SVG Version: 2.1.1 Build 3)  -->
  <defs>
    <style>
      .st0 {
        fill: #9e9d9c;
      }

      .st1 {
        fill: #fff;
      }
    </style>
  </defs>
  <g>
    <path class="st0" d="M93.65,207.9c-2.93,0-5.82-.77-8.36-2.24L10.82,162.66c-5.16-2.98-8.36-8.53-8.36-14.48V62.18c0-5.96,3.2-11.5,8.36-14.48L85.29,4.7c2.54-1.47,5.43-2.24,8.36-2.24s5.82.77,8.36,2.24l74.48,43c5.16,2.98,8.36,8.53,8.36,14.48v86c0,5.96-3.2,11.5-8.36,14.48l-74.48,43c-2.54,1.47-5.43,2.24-8.36,2.24Z"/>
    <path class="st1" d="M93.65,4.91c2.46,0,4.93.64,7.13,1.91l74.48,43c4.41,2.55,7.13,7.26,7.13,12.36v86c0,5.1-2.72,9.81-7.13,12.36l-74.48,43c-2.21,1.27-4.67,1.91-7.13,1.91s-4.93-.64-7.13-1.91L12.04,160.53c-4.41-2.55-7.13-7.26-7.13-12.36V62.18c0-5.1,2.72-9.81,7.13-12.36L86.52,6.82c2.21-1.27,4.67-1.91,7.13-1.91M93.65,0c-3.36,0-6.68.89-9.59,2.57L9.59,45.57C3.67,48.98,0,55.35,0,62.18v86c0,6.83,3.67,13.19,9.59,16.61l74.48,43c2.91,1.68,6.23,2.57,9.59,2.57s6.68-.89,9.59-2.57l74.48-43c5.91-3.41,9.59-9.78,9.59-16.61V62.18c0-6.83-3.67-13.19-9.59-16.61L103.24,2.57c-2.91-1.68-6.23-2.57-9.59-2.57h0Z"/>
    <path class="st1" d="M93.65,13.5c.99,0,1.98.26,2.84.76l74.48,43c1.75,1.01,2.84,2.89,2.84,4.91v86c0,2.02-1.09,3.9-2.84,4.91l-74.48,43c-.86.5-1.84.76-2.84.76s-1.98-.26-2.84-.76l-74.48-43c-1.75-1.01-2.84-2.89-2.84-4.91V62.18c0-2.02,1.09-3.9,2.84-4.91L90.82,14.27c.86-.5,1.84-.76,2.84-.76M93.65,9.82c-1.64,0-3.26.43-4.68,1.25L14.5,54.07c-2.89,1.67-4.68,4.77-4.68,8.1v86c0,3.33,1.79,6.44,4.68,8.1l74.48,43c1.42.82,3.04,1.25,4.68,1.25s3.26-.43,4.68-1.25l74.48-43c2.89-1.67,4.68-4.77,4.68-8.1V62.18c0-3.33-1.79-6.44-4.68-8.1L98.33,11.08c-1.42-.82-3.04-1.25-4.68-1.25h0Z"/>
  </g>
  <g>
    <path class="st0" d="M93.65,156.47c-5.72-.05-19.3.56-26.04,5.37.05,7.28-.31,17.64,2.92,26.83,3.32,9.19,11.48,20.51,23.12,23.92,11.64-3.42,19.8-14.73,23.12-23.92,3.23-9.19,2.87-19.55,2.92-26.83-6.74-4.81-20.32-5.42-26.04-5.37Z"/>
    <g>
      <path class="st1" d="M93.65,162.31c6.84,0,15.48.79,20.21,2.97-.01,5.63-.17,14.89-2.56,21.38-2.6,7.06-8.76,16.36-17.64,19.76-8.88-3.4-15.04-12.7-17.64-19.76-2.39-6.48-2.55-15.72-2.56-21.38,4.73-2.18,13.37-2.97,20.21-2.97M93.65,160.38c-6.19,0-16.85.67-22.14,3.72,0,5.44,0,15.93,2.68,23.22,2.99,8.1,9.77,17.79,19.45,21.14,9.68-3.35,16.47-13.04,19.45-21.14,2.69-7.29,2.68-17.78,2.68-23.22-5.29-3.05-15.95-3.72-22.14-3.72h0Z"/>
      <path class="st1" d="M92.26,176.8l-7.07-11.47c-3.65.36-6.82.95-9.11,1.72.05,4.66.32,11.24,1.69,16.42h10.42l4.08-6.67ZM84.84,178.91l-2.07-3.08-.99,1.13v1.95h-2.56v-8.1h2.56v2.94l2.65-2.94h2.74l-2.86,3.27,3.25,4.83h-2.71ZM102.12,165.34l-7.07,11.47,4.08,6.67h10.42c1.37-5.19,1.64-11.78,1.69-16.42-2.29-.77-5.46-1.35-9.11-1.72ZM101.58,178.92v-8.11h2.5v6.13h3.55l1.21,1.98h-7.26ZM99.39,165.11c-1.84-.12-3.76-.19-5.74-.19s-3.9.07-5.74.19l5.74,9.4,5.74-9.4ZM93.65,179.07l-5.85,9.5h-8.13c2.71,5.73,7.51,12.13,13.98,15.01,6.47-2.88,11.27-9.28,13.98-15.01h-8.13l-5.85-9.5ZM97.59,198.38h-2.54v-3.27h-2.77v3.27h-2.55v-8.21h2.55v2.96h2.77v-2.96h2.55v8.21Z"/>
    </g>
  </g>
  <g>
    <g>
      <polygon class="st1" points="126.86 38.21 128.3 44.56 134.66 46 128.3 47.44 126.86 53.8 125.42 47.44 119.07 46 125.42 44.56 126.86 38.21"/>
      <polygon class="st1" points="59.82 38.21 61.26 44.56 67.62 46 61.26 47.44 59.82 53.8 58.38 47.44 52.03 46 58.38 44.56 59.82 38.21"/>
    </g>
    <g>
      <polygon class="st1" points="88.76 32.71 82.59 32.71 76.73 42.01 78.1 32.71 72.82 32.71 68.9 59.25 74.18 59.25 75.69 49.07 79.32 59.25 84.86 59.25 80.23 46.26 88.76 32.71"/>
      <polygon class="st1" points="100.72 32.71 99.12 43.56 93.98 43.56 95.59 32.71 90.31 32.71 86.39 59.25 91.67 59.25 93.28 48.31 98.42 48.31 96.8 59.25 102.08 59.25 106 32.71 100.72 32.71"/>
      <polygon class="st1" points="110.51 54.54 113.73 32.71 108.46 32.71 104.53 59.25 117.59 59.29 118.29 54.54 110.51 54.54"/>
    </g>
  </g>
  <g>
    <path class="st1" d="M141.3,68.03h-16.12c-3.76,0-6.96,2.76-7.51,6.48l-1.55,10.45c-.26,1.79.43,3.58,1.83,4.72l16.38,13.33-1.28,8.64h-10.27l1.02-6.89h-10.57l-1.14,7.71c-.68,4.58,2.87,8.7,7.51,8.7h16.07c3.76,0,6.96-2.76,7.51-6.48l1.94-13.16c.26-1.79-.43-3.58-1.83-4.72l-16.38-13.33.88-5.95h10.32l-1,6.78h10.57l1.12-7.59c.68-4.58-2.87-8.7-7.51-8.7Z"/>
    <path class="st1" d="M103.56,68.03l-6.45,43.73h-10.29l6.45-43.73h-10.57l-6.55,44.43c-.68,4.59,2.87,8.72,7.51,8.72h16.09c3.76,0,6.96-2.76,7.51-6.49l6.88-46.66h-10.57Z"/>
    <path class="st1" d="M51.73,102.6h6.26l2.34,12.17c1.5-.37,3.06-.57,4.65-.57s3.31.21,4.91.63c.41.11.8.23,1.18.37l-2.51-13.03c2.61-.91,4.61-3.2,5.03-6.07l2.86-19.36c.68-4.59-2.87-8.72-7.51-8.72h-22.69s-7.84,53.15-7.84,53.15h10.57l2.74-18.58ZM55.43,77.56h10.33l-2.29,15.51h-10.33l2.29-15.51Z"/>
  </g>
  <g>
    <path class="st1" d="M68.66,119.56c-8.15-2.14-16.43,3.24-17.52,10.47-.83,5.5,3.53,8.45,7.44,11.98,4.44,4.02,2.01,9.19-3.87,8.5-4.69-.55-7.65-4.44-7.76-4.42l-2.68,2.24s4.82,6.42,12.29,6.42c10.55,0,14.61-10.72,7.47-16.64-4.29-3.56-6.24-4.7-6.68-7.39-.89-5.45,5.21-8.6,8.5-8.81,4.16-.27,4.87,2.71.12,5.69l3.08,2.62c3.5-2.38,5.82-9.04-.39-10.67Z"/>
    <path class="st1" d="M134.42,137.12l3.72-4.21-2.22-2.73c-2.73.23-5.34,2.11-6.2,4.83-.23.74-.29,1.46-.23,2.17-1.54,3.26-4.41,8.66-7.57,11.97-1.03,1.08-3.62,2.67-4.03.42-.47-2.53,2.87-7.99,4.32-10.19.34-.51,2.04-2.94,2.04-2.94l-3.18-2.69c-1.55.98-3.11,2.12-5.68.94.82-1.91,2.21-4.83,2.21-4.83l-3.18-2c-2.15,1.9-3.6,5.39-2.62,8.11.03.09.08.17.12.26-4.7,9.45-9.15,15.47-12.17,14.39-2.45-.88,6.99-17.72,6.99-17.72h-5.08s-.4.63-1,1.67c-.88-.81-2.05-1.53-3.51-1.67-6.17-.61-11.9,5.4-14.03,11.69-2.37,3.82-5.45,7.04-7.47,5.75-1.28-.82,1.41-7.49,4.24-13.63h3.82l1.83-3.82h-3.84c1.87-3.86,3.43-6.83,3.43-6.83h-5.07s-1.67,2.89-3.61,6.83h-3.65l-1.87,3.82h3.73c-3.02,6.77-5.64,14.68-2.73,17.03,3.66,2.96,8.06-.96,10.43-3.65.38,2.83,2.26,3.98,3.6,4.46,1.68.6,4.83.15,9.08-4.58.03,2.18.83,3.89,2.92,4.58,5.72,1.88,12.03-8.77,15.83-16.65,1.64.66,3.6.42,3.6.42,0,0-2.05,3.56-2.7,4.76-1.89,3.53-3.35,9.8.77,11.33,2.52.93,5.26-.2,7.45-2.09,2.98,2.99,7.32,3.12,11.15,1.06,1.39-.75,3.16-2.55,3.83-4.3,2.1-4.82-1.01-8.45-3.47-11.95ZM87.9,149.58c-1.35-2.83,5.21-14.37,8.89-13.66,2.8.54.9,4.76-.09,6.63-3.91,7.41-7.62,9.51-8.8,7.03ZM132.18,147.87c-.95,2.72-3.87,3.82-6.1,2.3-.25-.17-.49-.36-.7-.55,1.23-1.63,2.33-3.52,5.19-8.9,1.08,2.41,2.46,4.75,1.62,7.14Z"/>
  </g>
</svg>