<?xml version="1.0" encoding="UTF-8"?>
<svg id="_Слой_1" data-name="Слой_1" xmlns="http://www.w3.org/2000/svg" version="1.1" viewBox="0 0 217.03 212.6">
  <!-- Generator: Adobe Illustrator 29.8.2, SVG Export Plug-In . SVG Version: 2.1.1 Build 3)  -->
  <defs>
    <style>
      .st0 {
        fill: #fff;
      }

      .st1 {
        fill: #000505;
      }
    </style>
  </defs>
  <g>
    <path class="st1" d="M107.54,207.9c-2.93,0-5.82-.77-8.36-2.24l-74.48-43c-5.16-2.98-8.36-8.53-8.36-14.48v-19.63H4.2l-1.68-67.88h13.89c.49-5.37,3.57-10.24,8.29-12.97L99.18,4.7c2.54-1.47,5.43-2.24,8.36-2.24s5.82.77,8.36,2.24l74.48,43c4.72,2.72,7.8,7.6,8.29,12.97h.95c4.35,0,8.48,1.89,11.32,5.18,2.84,3.29,4.11,7.65,3.47,11.96l-5.61,37.97c-.83,5.62-4.77,10.22-10.07,11.99v20.4c0,5.96-3.2,11.5-8.36,14.48l-74.48,43c-2.54,1.47-5.43,2.24-8.36,2.24Z"/>
    <path class="st0" d="M107.54,4.91c2.46,0,4.93.64,7.13,1.91l74.48,43c4.41,2.55,7.13,7.26,7.13,12.36v.94h3.34c3.64,0,7.09,1.58,9.46,4.33s3.43,6.4,2.9,9.99l-5.61,37.97c-.79,5.32-4.95,9.49-10.09,10.46v22.3c0,5.1-2.72,9.81-7.13,12.36l-74.48,43c-2.21,1.27-4.67,1.91-7.13,1.91s-4.93-.64-7.13-1.91l-74.48-43c-4.41-2.55-7.13-7.26-7.13-12.36v-22.08H6.59l-1.56-62.97h13.76v-.94c0-5.1,2.72-9.81,7.13-12.36L100.4,6.82c2.21-1.27,4.67-1.91,7.13-1.91M107.54,0c-3.36,0-6.68.89-9.59,2.57L23.47,45.57c-4.75,2.74-8.05,7.38-9.17,12.64H0l.12,5.03,1.56,62.97.12,4.79h12.08v17.17c0,6.83,3.67,13.19,9.59,16.61l74.48,43c2.91,1.68,6.23,2.57,9.59,2.57s6.68-.89,9.59-2.57l74.48-43c5.91-3.42,9.59-9.78,9.59-16.61v-18.73c5.31-2.41,9.16-7.37,10.04-13.3l5.61-37.97c.74-5.01-.73-10.09-4.04-13.92-3.06-3.54-7.39-5.69-12.02-6-1.11-5.27-4.42-9.93-9.18-12.68L117.13,2.57c-2.91-1.68-6.23-2.57-9.59-2.57h0Z"/>
    <g>
      <path class="st0" d="M187.69,126.09v22.08c0,2.02-1.09,3.9-2.84,4.91l-74.48,43c-.86.5-1.84.76-2.84.76s-1.98-.26-2.84-.76l-74.48-43c-1.75-1.01-2.84-2.89-2.84-4.91v-22.08h-3.68v22.08c0,3.33,1.79,6.44,4.68,8.1l74.48,43c1.42.82,3.04,1.25,4.68,1.25s3.26-.43,4.68-1.25l74.48-43c2.89-1.67,4.68-4.77,4.68-8.1v-22.08h-3.68Z"/>
      <path class="st0" d="M27.39,63.12v-.94c0-2.02,1.09-3.9,2.84-4.91L104.7,14.26c.86-.5,1.84-.76,2.84-.76s1.98.26,2.84.76l74.48,43c1.75,1.01,2.84,2.89,2.84,4.91v.94h3.68v-.94c0-3.33-1.79-6.44-4.68-8.1L112.22,11.08c-1.42-.82-3.04-1.25-4.68-1.25s-3.26.43-4.68,1.25L28.38,54.07c-2.89,1.67-4.68,4.77-4.68,8.1v.94h3.68Z"/>
    </g>
  </g>
  <g>
    <path class="st1" d="M107.54,156.47c-5.72-.05-19.3.56-26.04,5.37.05,7.28-.31,17.64,2.92,26.83,3.32,9.19,11.48,20.51,23.12,23.92,11.64-3.42,19.8-14.73,23.12-23.92,3.23-9.19,2.87-19.55,2.92-26.83-6.74-4.81-20.32-5.42-26.04-5.37Z"/>
    <g>
      <path class="st0" d="M107.54,162.31c6.84,0,15.48.79,20.21,2.97-.01,5.63-.17,14.89-2.56,21.38-2.6,7.06-8.76,16.36-17.64,19.76-8.88-3.4-15.04-12.7-17.64-19.76-2.39-6.48-2.55-15.72-2.56-21.38,4.73-2.18,13.37-2.97,20.21-2.97M107.54,160.38c-6.19,0-16.85.67-22.14,3.72,0,5.44,0,15.93,2.68,23.22,2.99,8.1,9.77,17.79,19.45,21.14,9.68-3.35,16.47-13.04,19.45-21.14,2.69-7.29,2.68-17.78,2.68-23.22-5.29-3.05-15.95-3.72-22.14-3.72h0Z"/>
      <path class="st0" d="M106.14,176.8l-7.07-11.47c-3.65.36-6.82.95-9.11,1.72.05,4.66.32,11.24,1.69,16.42h10.42l4.08-6.67ZM98.72,178.91l-2.07-3.08-.99,1.13v1.95h-2.56v-8.1h2.56v2.94l2.65-2.94h2.74l-2.86,3.27,3.25,4.83h-2.71ZM116,165.34l-7.07,11.47,4.08,6.67h10.42c1.37-5.19,1.64-11.78,1.69-16.42-2.29-.77-5.46-1.35-9.11-1.72ZM115.46,178.92v-8.11h2.5v6.13h3.55l1.21,1.98h-7.26ZM113.28,165.11c-1.84-.12-3.76-.19-5.74-.19s-3.9.07-5.74.19l5.74,9.4,5.74-9.4ZM107.54,179.07l-5.85,9.5h-8.13c2.71,5.73,7.51,12.13,13.98,15.01,6.47-2.88,11.27-9.28,13.98-15.01h-8.13l-5.85-9.5ZM111.47,198.38h-2.54v-3.27h-2.77v3.27h-2.55v-8.21h2.55v2.96h2.77v-2.96h2.55v8.21Z"/>
    </g>
  </g>
  <g>
    <polygon class="st0" points="157.52 68.03 146.95 68.03 139.1 121.18 165.26 121.18 166.66 111.67 151.07 111.67 157.52 68.03"/>
    <polygon class="st0" points="61.19 68.03 46.91 109.13 45.9 68.04 45.9 68.03 45.9 68.03 35.83 68.03 21.55 109.16 20.53 68.03 10.07 68.03 11.38 121.18 27.44 121.18 37.02 93.6 37.7 121.18 53.8 121.18 72.26 68.03 61.19 68.03"/>
    <path class="st0" d="M199.62,68.03h-22.64l-7.86,53.15h24.89c3.76,0,6.96-2.76,7.51-6.48l5.61-37.97c.68-4.58-2.87-8.7-7.51-8.7ZM191.39,111.67h-10.29l5.05-34.14h10.29l-5.05,34.14Z"/>
    <path class="st0" d="M137.76,96.16l2.86-19.32c.68-4.58-2.87-8.7-7.51-8.7h-22.69s-7.84,53.04-7.84,53.04h10.57l2.74-18.54h6.26l3.58,18.54h10.65l-3.66-18.96c2.61-.9,4.61-3.19,5.03-6.06ZM119.59,77.65h10.33l-2.29,15.48h-10.33l2.29-15.48Z"/>
    <path class="st0" d="M78.87,114.2c1.66,0,3.31.21,4.91.63,3.61.95,6.14,3.23,7.09,6.35h.76c3.76,0,6.96-2.76,7.51-6.48l5.61-37.97c.68-4.58-2.87-8.7-7.51-8.7h-16.09c-3.76,0-6.96,2.76-7.51,6.48l-5.61,37.97c-.24,1.63.06,3.2.75,4.54,2.96-1.78,6.45-2.83,10.09-2.83ZM83.77,77.53h10.29l-5.05,34.14h-10.29l5.05-34.14Z"/>
  </g>
  <g>
    <g>
      <polygon class="st0" points="140.75 38.21 142.18 44.56 148.54 46 142.18 47.44 140.75 53.8 139.31 47.44 132.95 46 139.31 44.56 140.75 38.21"/>
      <polygon class="st0" points="73.71 38.21 75.14 44.56 81.5 46 75.14 47.44 73.71 53.8 72.27 47.44 65.91 46 72.27 44.56 73.71 38.21"/>
    </g>
    <g>
      <polygon class="st0" points="102.65 32.71 96.47 32.71 90.61 42.01 91.99 32.71 86.71 32.71 82.79 59.25 88.07 59.25 89.57 49.07 93.2 59.25 98.74 59.25 94.11 46.26 102.65 32.71"/>
      <polygon class="st0" points="114.61 32.71 113.01 43.56 107.87 43.56 109.47 32.71 104.19 32.71 100.27 59.25 105.55 59.25 107.17 48.31 112.3 48.31 110.69 59.25 115.97 59.25 119.89 32.71 114.61 32.71"/>
      <polygon class="st0" points="124.39 54.54 127.62 32.71 122.34 32.71 118.42 59.25 131.47 59.29 132.18 54.54 124.39 54.54"/>
    </g>
  </g>
  <g>
    <path class="st0" d="M82.54,119.56c-8.15-2.14-16.43,3.24-17.52,10.47-.83,5.5,3.53,8.45,7.44,11.98,4.44,4.02,2.01,9.19-3.87,8.5-4.69-.55-7.65-4.44-7.76-4.42l-2.68,2.24s4.82,6.42,12.29,6.42c10.55,0,14.61-10.72,7.47-16.64-4.29-3.56-6.24-4.7-6.68-7.39-.89-5.45,5.21-8.6,8.5-8.81,4.16-.27,4.87,2.71.12,5.69l3.08,2.62c3.5-2.38,5.82-9.04-.39-10.67Z"/>
    <path class="st0" d="M148.3,137.12l3.72-4.21-2.22-2.73c-2.73.23-5.34,2.11-6.2,4.83-.23.74-.29,1.46-.23,2.17-1.54,3.26-4.41,8.66-7.57,11.97-1.03,1.08-3.62,2.67-4.03.42-.47-2.53,2.87-7.99,4.32-10.19.34-.51,2.04-2.94,2.04-2.94l-3.18-2.69c-1.55.98-3.11,2.12-5.68.94.82-1.91,2.21-4.83,2.21-4.83l-3.18-2c-2.15,1.9-3.6,5.39-2.62,8.11.03.09.08.17.12.26-4.7,9.45-9.15,15.47-12.17,14.39-2.45-.88,6.99-17.72,6.99-17.72h-5.08s-.4.63-1,1.67c-.88-.81-2.05-1.53-3.51-1.67-6.17-.61-11.9,5.4-14.03,11.69-2.37,3.82-5.45,7.04-7.47,5.75-1.28-.82,1.41-7.49,4.24-13.63h3.82l1.83-3.82h-3.84c1.87-3.86,3.43-6.83,3.43-6.83h-5.07s-1.67,2.89-3.61,6.83h-3.65l-1.87,3.82h3.73c-3.02,6.77-5.64,14.68-2.73,17.03,3.66,2.96,8.06-.96,10.43-3.65.38,2.83,2.26,3.98,3.6,4.46,1.68.6,4.83.15,9.08-4.58.03,2.18.83,3.89,2.92,4.58,5.72,1.88,12.03-8.77,15.83-16.65,1.64.66,3.6.42,3.6.42,0,0-2.05,3.56-2.7,4.76-1.89,3.53-3.35,9.8.77,11.33,2.52.93,5.26-.2,7.45-2.09,2.98,2.99,7.32,3.12,11.15,1.06,1.39-.75,3.16-2.55,3.83-4.3,2.1-4.82-1.01-8.45-3.47-11.95ZM101.78,149.58c-1.35-2.83,5.21-14.37,8.89-13.66,2.8.54.9,4.76-.09,6.63-3.91,7.41-7.62,9.51-8.8,7.03ZM146.06,147.87c-.95,2.72-3.87,3.82-6.1,2.3-.25-.17-.49-.36-.7-.55,1.23-1.63,2.33-3.52,5.19-8.9,1.08,2.41,2.46,4.75,1.62,7.14Z"/>
  </g>
</svg>